<?xml version="1.0" encoding="utf-8"?>
<!-- Generator: Adobe Illustrator 28.1.0, SVG Export Plug-In . SVG Version: 6.00 Build 0)  -->
<svg version="1.1" id="Livello_1" xmlns="http://www.w3.org/2000/svg" xmlns:xlink="http://www.w3.org/1999/xlink" x="0px" y="0px"
	 viewBox="0 0 28 28" style="enable-background:new 0 0 28 28;" xml:space="preserve">
<style type="text/css">
	.st0{fill:#989898;}
	.st1{fill:#FFFFFF;}
</style>
<g>
	<path class="st0" d="M14,25.7C14,25.7-2.1,12.2,2.4,5C6.7-2,14,5.3,14,5.3s7-7.2,11.6-0.2C30.2,12.2,14,25.7,14,25.7z"/>
	<path class="st1" d="M21.4,8.5H9.6C9.4,7.8,8.7,7.2,7.9,7.2C6.9,7.2,6,8,6,9c0,1,0.8,1.8,1.8,1.8c0.8,0,1.5-0.6,1.7-1.3h11.8
		c0.3,0,0.5-0.2,0.5-0.5S21.7,8.5,21.4,8.5z"/>
	<path class="st1" d="M21.4,14.1H9.6c-0.2-0.8-0.9-1.3-1.7-1.3c-1,0-1.8,0.8-1.8,1.8s0.8,1.8,1.8,1.8c0.8,0,1.5-0.6,1.7-1.3h11.8
		c0.3,0,0.5-0.2,0.5-0.5S21.7,14.1,21.4,14.1z"/>
</g>
</svg>
